<svg xmlns="http://www.w3.org/2000/svg" xmlns:xlink="http://www.w3.org/1999/xlink" width="1000" height="1000" viewBox="0 0 1000 1000">
  <defs>
    <clipPath id="clip-clear-night">
      <rect width="1000" height="1000"/>
    </clipPath>
  </defs>
  <g id="clear-night" clip-path="url(#clip-clear-night)">
    <path id="Subtraction_5" data-name="Subtraction 5" d="M-2577.991-2840a253.747,253.747,0,0,1-50.789-5.123,250.611,250.611,0,0,1-47.3-14.691,252.039,252.039,0,0,1-42.807-23.245,253.892,253.892,0,0,1-37.3-30.787,253.9,253.9,0,0,1-30.772-37.314,252.228,252.228,0,0,1-23.235-42.827,250.923,250.923,0,0,1-14.684-47.326,254.094,254.094,0,0,1-5.12-50.812,252.013,252.013,0,0,1,12.46-78.518,251.074,251.074,0,0,1,34.74-68.424,253.124,253.124,0,0,1,53.062-54.369,251.093,251.093,0,0,1,67.425-36.354,244.13,244.13,0,0,0-50.383,149.324c0,135.821,110.448,246.32,246.207,246.32a244.25,244.25,0,0,0,100.295-21.3,253.544,253.544,0,0,1-39.536,47.341,253.057,253.057,0,0,1-49.884,36.427,250.621,250.621,0,0,1-58.123,23.4A252.7,252.7,0,0,1-2577.991-2840Z" transform="translate(3408.273 3196.125) rotate(-7)" fill="#e0c8a4"/>
    <path id="Union_6" data-name="Union 6" d="M-3844.753-4428.56-3900-4440.2l55.188-11.632L-3833.3-4505l11.534,53.255L-3767-4440.2l-54.822,11.554L-3833.3-4375Z" transform="translate(4334 4850)" fill="#fbae17"/>
  </g>
</svg>
