<svg xmlns="http://www.w3.org/2000/svg" xmlns:xlink="http://www.w3.org/1999/xlink" width="1000" height="1000" viewBox="0 0 1000 1000">
  <defs>
    <clipPath id="clip-mist">
      <rect width="1000" height="1000"/>
    </clipPath>
  </defs>
  <g id="mist" clip-path="url(#clip-mist)">
    <path id="Subtraction_3" data-name="Subtraction 3" d="M499,251H0c0-.149,0-.3,0-.452v-.138a253.147,253.147,0,0,1,5.069-50.466,249.124,249.124,0,0,1,420.854-126.6A250.189,250.189,0,0,1,499,250.41c0,.136,0,.275,0,.413V251Z" transform="translate(1000 751) rotate(180)" fill="#fff"/>
    <path id="Subtraction_2" data-name="Subtraction 2" d="M499,251H0c0-.149,0-.3,0-.452v-.138a253.147,253.147,0,0,1,5.069-50.466,249.124,249.124,0,0,1,420.854-126.6A250.189,250.189,0,0,1,499,250.41c0,.136,0,.275,0,.413V251Z" transform="translate(0 249)" fill="#fff"/>
    <rect id="Rectangle_33" data-name="Rectangle 33" width="308" height="20" transform="translate(61 550)" fill="#e0c8a4"/>
    <rect id="Rectangle_34" data-name="Rectangle 34" width="308" height="20" transform="translate(61 550)" fill="#e0c8a4"/>
    <rect id="Rectangle_35" data-name="Rectangle 35" width="308" height="20" transform="translate(162 588)" fill="#e0c8a4"/>
    <rect id="Rectangle_36" data-name="Rectangle 36" width="308" height="20" transform="translate(108 626)" fill="#e0c8a4"/>
    <rect id="Rectangle_37" data-name="Rectangle 37" width="308" height="20" transform="translate(85 664)" fill="#e0c8a4"/>
    <rect id="Rectangle_38" data-name="Rectangle 38" width="225" height="20" transform="translate(124 702)" fill="#e0c8a4"/>
    <rect id="Rectangle_39" data-name="Rectangle 39" width="154" height="20" transform="translate(162 740)" fill="#e0c8a4"/>
  </g>
</svg>
