<svg xmlns="http://www.w3.org/2000/svg" xmlns:xlink="http://www.w3.org/1999/xlink" width="1000" height="1000" viewBox="0 0 1000 1000">
  <defs>
    <clipPath id="clip-shower-rain">
      <rect width="1000" height="1000"/>
    </clipPath>
  </defs>
  <g id="shower-rain" clip-path="url(#clip-shower-rain)">
    <path id="Subtraction_3" data-name="Subtraction 3" d="M499,251H0c0-.149,0-.3,0-.452v-.138a253.147,253.147,0,0,1,5.069-50.466,249.124,249.124,0,0,1,420.854-126.6A250.189,250.189,0,0,1,499,250.41c0,.136,0,.275,0,.413V251Z" transform="translate(1000 751) rotate(180)" fill="#fff"/>
    <path id="Subtraction_2" data-name="Subtraction 2" d="M499,251H0c0-.149,0-.3,0-.452v-.138a253.147,253.147,0,0,1,5.069-50.466,249.124,249.124,0,0,1,420.854-126.6A250.189,250.189,0,0,1,499,250.41c0,.136,0,.275,0,.413V251Z" transform="translate(0 249)" fill="#fff"/>
    <rect id="Rectangle_5" data-name="Rectangle 5" width="18" height="218" transform="translate(65 533)" fill="#6ca9ff"/>
    <rect id="Rectangle_16" data-name="Rectangle 16" width="18" height="218" transform="translate(241 533)" fill="#6ca9ff"/>
    <rect id="Rectangle_15" data-name="Rectangle 15" width="18" height="218" transform="translate(153 533)" fill="#6ca9ff"/>
    <rect id="Rectangle_17" data-name="Rectangle 17" width="18" height="218" transform="translate(329 533)" fill="#6ca9ff"/>
    <rect id="Rectangle_18" data-name="Rectangle 18" width="18" height="218" transform="translate(417 533)" fill="#6ca9ff"/>
  </g>
</svg>
