<svg xmlns="http://www.w3.org/2000/svg" xmlns:xlink="http://www.w3.org/1999/xlink" width="1000" height="1000" viewBox="0 0 1000 1000">
  <defs>
    <clipPath id="clip-snow-night">
      <rect width="1000" height="1000"/>
    </clipPath>
  </defs>
  <g id="snow-night" clip-path="url(#clip-snow-night)">
    <path id="Subtraction_5" data-name="Subtraction 5" d="M-2634.5-2950a196.936,196.936,0,0,1-39.4-3.972,194.5,194.5,0,0,1-36.7-11.391,195.544,195.544,0,0,1-33.208-18.025,196.939,196.939,0,0,1-28.933-23.872,196.9,196.9,0,0,1-23.872-28.934,195.534,195.534,0,0,1-18.025-33.208,194.508,194.508,0,0,1-11.391-36.7,196.952,196.952,0,0,1-3.972-39.4,195.337,195.337,0,0,1,9.666-60.884,194.642,194.642,0,0,1,26.95-53.057,196.318,196.318,0,0,1,41.163-42.158,194.817,194.817,0,0,1,52.306-28.189A189.245,189.245,0,0,0-2739-3214c0,105.318,85.682,191,191,191a189.556,189.556,0,0,0,77.806-16.514,196.621,196.621,0,0,1-30.671,36.709,196.3,196.3,0,0,1-38.7,28.246,194.478,194.478,0,0,1-45.09,18.147A196.124,196.124,0,0,1-2634.5-2950Z" transform="translate(3561.904 3069.63) rotate(-7)" fill="#e0c8a4"/>
    <path id="Subtraction_3" data-name="Subtraction 3" d="M499,251H0c0-.149,0-.3,0-.452v-.138a253.147,253.147,0,0,1,5.069-50.466,249.124,249.124,0,0,1,420.854-126.6A250.189,250.189,0,0,1,499,250.41c0,.136,0,.275,0,.413V251Z" transform="translate(1000 751) rotate(180)" fill="#fff"/>
    <path id="Subtraction_2" data-name="Subtraction 2" d="M499,251H0c0-.149,0-.3,0-.452v-.138a253.147,253.147,0,0,1,5.069-50.466,249.124,249.124,0,0,1,420.854-126.6A250.189,250.189,0,0,1,499,250.41c0,.136,0,.275,0,.413V251Z" transform="translate(0 249)" fill="#fff"/>
    <circle id="Ellipse_30" data-name="Ellipse 30" cx="16.5" cy="16.5" r="16.5" transform="translate(66 534)" fill="#fff"/>
    <circle id="Ellipse_36" data-name="Ellipse 36" cx="16.5" cy="16.5" r="16.5" transform="translate(233 535)" fill="#fff"/>
    <circle id="Ellipse_32" data-name="Ellipse 32" cx="16.5" cy="16.5" r="16.5" transform="translate(149 535)" fill="#fff"/>
    <circle id="Ellipse_39" data-name="Ellipse 39" cx="16.5" cy="16.5" r="16.5" transform="translate(316 536)" fill="#fff"/>
    <circle id="Ellipse_42" data-name="Ellipse 42" cx="16.5" cy="16.5" r="16.5" transform="translate(400 535)" fill="#fff"/>
    <circle id="Ellipse_31" data-name="Ellipse 31" cx="16.5" cy="16.5" r="16.5" transform="translate(66 627)" fill="#fff"/>
    <circle id="Ellipse_37" data-name="Ellipse 37" cx="16.5" cy="16.5" r="16.5" transform="translate(233 628)" fill="#fff"/>
    <circle id="Ellipse_33" data-name="Ellipse 33" cx="16.5" cy="16.5" r="16.5" transform="translate(149 628)" fill="#fff"/>
    <circle id="Ellipse_40" data-name="Ellipse 40" cx="16.5" cy="16.5" r="16.5" transform="translate(316 629)" fill="#fff"/>
    <circle id="Ellipse_43" data-name="Ellipse 43" cx="16.5" cy="16.5" r="16.5" transform="translate(400 628)" fill="#fff"/>
    <circle id="Ellipse_34" data-name="Ellipse 34" cx="16.5" cy="16.5" r="16.5" transform="translate(66 720)" fill="#fff"/>
    <circle id="Ellipse_38" data-name="Ellipse 38" cx="16.5" cy="16.5" r="16.5" transform="translate(233 721)" fill="#fff"/>
    <circle id="Ellipse_35" data-name="Ellipse 35" cx="16.5" cy="16.5" r="16.5" transform="translate(149 721)" fill="#fff"/>
    <circle id="Ellipse_41" data-name="Ellipse 41" cx="16.5" cy="16.5" r="16.5" transform="translate(316 722)" fill="#fff"/>
    <circle id="Ellipse_44" data-name="Ellipse 44" cx="16.5" cy="16.5" r="16.5" transform="translate(400 721)" fill="#fff"/>
  </g>
</svg>
