<svg xmlns="http://www.w3.org/2000/svg" xmlns:xlink="http://www.w3.org/1999/xlink" width="1000" height="1000" viewBox="0 0 1000 1000">
  <defs>
    <clipPath id="clip-cloudy-sunny_7">
      <rect width="1000" height="1000"/>
    </clipPath>
  </defs>
  <g id="cloudy-sunny_7" data-name="cloudy-sunny – 7" clip-path="url(#clip-cloudy-sunny_7)">
    <path id="Subtraction_3" data-name="Subtraction 3" d="M499,251H0c0-.149,0-.3,0-.452v-.138a253.147,253.147,0,0,1,5.069-50.466,249.124,249.124,0,0,1,420.854-126.6A250.189,250.189,0,0,1,499,250.41c0,.136,0,.275,0,.413V251Z" transform="translate(1000 751) rotate(180)" fill="#fff"/>
    <path id="Subtraction_2" data-name="Subtraction 2" d="M499,251H0c0-.149,0-.3,0-.452v-.138a253.147,253.147,0,0,1,5.069-50.466,249.124,249.124,0,0,1,420.854-126.6A250.189,250.189,0,0,1,499,250.41c0,.136,0,.275,0,.413V251Z" transform="translate(0 249)" fill="#fff"/>
    <rect id="Rectangle_5" data-name="Rectangle 5" width="18" height="84" transform="translate(65 533)" fill="#6ca9ff"/>
    <rect id="Rectangle_14" data-name="Rectangle 14" width="18" height="84" transform="translate(65 667)" fill="#6ca9ff"/>
    <rect id="Rectangle_7" data-name="Rectangle 7" width="18" height="84" transform="translate(241 533)" fill="#6ca9ff"/>
    <rect id="Rectangle_12" data-name="Rectangle 12" width="18" height="84" transform="translate(241 667)" fill="#6ca9ff"/>
    <rect id="Rectangle_9" data-name="Rectangle 9" width="18" height="84" transform="translate(417 533)" fill="#6ca9ff"/>
    <rect id="Rectangle_10" data-name="Rectangle 10" width="18" height="84" transform="translate(417 667)" fill="#6ca9ff"/>
    <circle id="Ellipse_7" data-name="Ellipse 7" cx="16.5" cy="16.5" r="16.5" transform="translate(145 533)" fill="#fff"/>
    <circle id="Ellipse_10" data-name="Ellipse 10" cx="16.5" cy="16.5" r="16.5" transform="translate(322 533)" fill="#fff"/>
    <circle id="Ellipse_8" data-name="Ellipse 8" cx="16.5" cy="16.5" r="16.5" transform="translate(145 626)" fill="#fff"/>
    <circle id="Ellipse_11" data-name="Ellipse 11" cx="16.5" cy="16.5" r="16.5" transform="translate(322 626)" fill="#fff"/>
    <circle id="Ellipse_9" data-name="Ellipse 9" cx="16.5" cy="16.5" r="16.5" transform="translate(142 719)" fill="#fff"/>
    <circle id="Ellipse_12" data-name="Ellipse 12" cx="16.5" cy="16.5" r="16.5" transform="translate(322 719)" fill="#fff"/>
  </g>
</svg>
