<svg xmlns="http://www.w3.org/2000/svg" xmlns:xlink="http://www.w3.org/1999/xlink" width="1000" height="1000" viewBox="0 0 1000 1000">
  <defs>
    <clipPath id="clip-thunder-rain">
      <rect width="1000" height="1000"/>
    </clipPath>
  </defs>
  <g id="thunder-rain" clip-path="url(#clip-thunder-rain)">
    <path id="Subtraction_3" data-name="Subtraction 3" d="M499,251H0c0-.149,0-.3,0-.452v-.138a253.147,253.147,0,0,1,5.069-50.466,249.124,249.124,0,0,1,420.854-126.6A250.189,250.189,0,0,1,499,250.41c0,.136,0,.275,0,.413V251Z" transform="translate(1000 751) rotate(180)" fill="#fff"/>
    <path id="Subtraction_2" data-name="Subtraction 2" d="M499,251H0c0-.149,0-.3,0-.452v-.138a253.147,253.147,0,0,1,5.069-50.466,249.124,249.124,0,0,1,420.854-126.6A250.189,250.189,0,0,1,499,250.41c0,.136,0,.275,0,.413V251Z" transform="translate(0 249)" fill="#fff"/>
    <rect id="Rectangle_5" data-name="Rectangle 5" width="18" height="46" transform="translate(65 533)" fill="#6ca9ff"/>
    <rect id="Rectangle_21" data-name="Rectangle 21" width="18" height="46" transform="translate(153 533)" fill="#6ca9ff"/>
    <rect id="Rectangle_25" data-name="Rectangle 25" width="18" height="46" transform="translate(329 533)" fill="#6ca9ff"/>
    <rect id="Rectangle_30" data-name="Rectangle 30" width="18" height="46" transform="translate(417 533)" fill="#6ca9ff"/>
    <rect id="Rectangle_19" data-name="Rectangle 19" width="18" height="46" transform="translate(65 619)" fill="#6ca9ff"/>
    <rect id="Rectangle_22" data-name="Rectangle 22" width="18" height="46" transform="translate(153 619)" fill="#6ca9ff"/>
    <rect id="Rectangle_27" data-name="Rectangle 27" width="18" height="46" transform="translate(329 619)" fill="#6ca9ff"/>
    <rect id="Rectangle_31" data-name="Rectangle 31" width="18" height="46" transform="translate(417 619)" fill="#6ca9ff"/>
    <rect id="Rectangle_20" data-name="Rectangle 20" width="18" height="46" transform="translate(65 705)" fill="#6ca9ff"/>
    <rect id="Rectangle_23" data-name="Rectangle 23" width="18" height="46" transform="translate(153 705)" fill="#6ca9ff"/>
    <rect id="Rectangle_29" data-name="Rectangle 29" width="18" height="46" transform="translate(329 705)" fill="#6ca9ff"/>
    <rect id="Rectangle_32" data-name="Rectangle 32" width="18" height="46" transform="translate(417 705)" fill="#6ca9ff"/>
    <path id="Union_2" data-name="Union 2" d="M-630.981-2195.606H-690L-630.672-2305v108.981h59.018l-59.328,109.393Z" transform="translate(880 2838)" fill="#fff"/>
  </g>
</svg>
